<svg xmlns="http://www.w3.org/2000/svg" class="railroad" width="786" height="1532" viewBox="0 0 786 1532"><style>svg.railroad{background:#fff;font-family:monospace;font-size:13px}.rr-line{stroke:#334;stroke-width:2;fill:none}.rr-cap{fill:#334}.rr-term{fill:#e8f0ff;stroke:#334;stroke-width:2}.rr-nonterm{fill:#fff7e8;stroke:#334;stroke-width:2}.rr-label{fill:#111;text-anchor:middle;dominant-baseline:middle}.rr-comment{fill:#666;font-style:italic;text-anchor:middle;dominant-baseline:middle}.rr-title{fill:#113;font-weight:bold;font-size:15px}a:hover .rr-nonterm{fill:#ffe6b3;cursor:pointer}</style><g><g id="ini"><text class="rr-title" x="16" y="31">ini</text><circle class="rr-cap" cx="46" cy="42" r="3"/><path class="rr-line" d="M46 42V56"/><a href="#table"><rect class="rr-nonterm" x="16" y="56" width="60" height="26" rx="4" ry="4"/><text class="rr-label" x="46" y="69">table</text></a><path class="rr-line" d="M46 82V96"/><circle class="rr-cap" cx="46" cy="96" r="3"/></g><g id="val"><text class="rr-title" x="16" y="145">val</text><circle class="rr-cap" cx="339.25" cy="156" r="3"/><path class="rr-line" d="M339.25 156V170"/><path class="rr-line" d="M339.25 170V188"/><path class="rr-line" d="M232.5 188H446"/><path class="rr-line" d="M232.5 394H446"/><path class="rr-line" d="M339.25 394V412"/><path class="rr-line" d="M232.5 188V206"/><path class="rr-line" d="M232.5 206V224"/><path class="rr-line" d="M59 224H406"/><path class="rr-line" d="M59 358H406"/><path class="rr-line" d="M232.5 358V376"/><path class="rr-line" d="M59 224V242"/><path class="rr-line" d="M59 242V260"/><path class="rr-line" d="M31 260H87"/><path class="rr-line" d="M31 322H87"/><path class="rr-line" d="M59 322V340"/><path class="rr-line" d="M31 260V278"/><rect class="rr-term" x="16" y="278" width="30" height="26" rx="13" ry="13"/><text class="rr-label" x="31" y="291">[</text><path class="rr-line" d="M31 304V322"/><path class="rr-line" d="M87 260V278"/><rect class="rr-term" x="72" y="278" width="30" height="26" rx="13" ry="13"/><text class="rr-label" x="87" y="291">]</text><path class="rr-line" d="M87 304V322"/><path class="rr-line" d="M59 340V358"/><path class="rr-line" d="M146 224V242"/><rect class="rr-term" x="128" y="242" width="36" height="26" rx="13" ry="13"/><text class="rr-label" x="146" y="255">DK</text><path class="rr-line" d="M146 268V358"/><path class="rr-line" d="M208 224V242"/><rect class="rr-term" x="190" y="242" width="36" height="26" rx="13" ry="13"/><text class="rr-label" x="208" y="255">HK</text><path class="rr-line" d="M208 268V358"/><path class="rr-line" d="M270 224V242"/><rect class="rr-term" x="252" y="242" width="36" height="26" rx="13" ry="13"/><text class="rr-label" x="270" y="255">HV</text><path class="rr-line" d="M270 268V358"/><path class="rr-line" d="M336 224V242"/><a href="#map"><rect class="rr-nonterm" x="314" y="242" width="44" height="26" rx="4" ry="4"/><text class="rr-label" x="336" y="255">map</text></a><path class="rr-line" d="M336 268V358"/><path class="rr-line" d="M406 224V242"/><rect class="rr-term" x="384" y="242" width="44" height="26" rx="13" ry="13"/><text class="rr-label" x="406" y="255">VAL</text><path class="rr-line" d="M406 268V358"/><path class="rr-line" d="M232.5 376V394"/><path class="rr-line" d="M446 188V206"/><path class="rr-line" d="M446 206V218"/><path class="rr-line" d="M446 218V394"/><path class="rr-line" d="M339.25 412V426"/><circle class="rr-cap" cx="339.25" cy="426" r="3"/></g><g id="map"><text class="rr-title" x="16" y="475">map</text><circle class="rr-cap" cx="108" cy="486" r="3"/><path class="rr-line" d="M108 486V500"/><path class="rr-line" d="M108 500V518"/><path class="rr-line" d="M34 518H182"/><path class="rr-line" d="M34 624H182"/><path class="rr-line" d="M108 624V642"/><path class="rr-line" d="M34 518V536"/><rect class="rr-term" x="16" y="536" width="36" height="26" rx="13" ry="13"/><text class="rr-label" x="34" y="549">OB</text><path class="rr-line" d="M34 562V624"/><path class="rr-line" d="M104 518V536"/><rect class="rr-term" x="86" y="536" width="36" height="26" rx="13" ry="13"/><text class="rr-label" x="104" y="549">OB</text><path class="rr-line" d="M104 562V580"/><a href="#pair"><rect class="rr-nonterm" x="78" y="580" width="52" height="26" rx="4" ry="4"/><text class="rr-label" x="104" y="593">pair</text></a><path class="rr-line" d="M104 606V624"/><path class="rr-line" d="M182 518V536"/><a href="#pair"><rect class="rr-nonterm" x="156" y="536" width="52" height="26" rx="4" ry="4"/><text class="rr-label" x="182" y="549">pair</text></a><path class="rr-line" d="M182 562V624"/><path class="rr-line" d="M108 642V660"/><rect class="rr-term" x="90" y="660" width="36" height="26" rx="13" ry="13"/><text class="rr-label" x="108" y="673">CB</text><path class="rr-line" d="M108 686V700"/><circle class="rr-cap" cx="108" cy="700" r="3"/></g><g id="list"><text class="rr-title" x="16" y="749">list</text><circle class="rr-cap" cx="109" cy="760" r="3"/><path class="rr-line" d="M109 760V774"/><path class="rr-line" d="M109 774V792"/><path class="rr-line" d="M42 792H176"/><path class="rr-line" d="M42 898H176"/><path class="rr-line" d="M109 898V916"/><path class="rr-line" d="M42 792V810"/><a href="#elem"><rect class="rr-nonterm" x="16" y="810" width="52" height="26" rx="4" ry="4"/><text class="rr-label" x="42" y="823">elem</text></a><path class="rr-line" d="M42 836V898"/><path class="rr-line" d="M109 792V810"/><rect class="rr-term" x="94" y="810" width="30" height="26" rx="13" ry="13"/><text class="rr-label" x="109" y="823">[</text><path class="rr-line" d="M109 836V898"/><path class="rr-line" d="M176 792V810"/><rect class="rr-term" x="161" y="810" width="30" height="26" rx="13" ry="13"/><text class="rr-label" x="176" y="823">[</text><path class="rr-line" d="M176 836V854"/><a href="#elem"><rect class="rr-nonterm" x="150" y="854" width="52" height="26" rx="4" ry="4"/><text class="rr-label" x="176" y="867">elem</text></a><path class="rr-line" d="M176 880V898"/><path class="rr-line" d="M109 916V934"/><rect class="rr-term" x="94" y="934" width="30" height="26" rx="13" ry="13"/><text class="rr-label" x="109" y="947">]</text><path class="rr-line" d="M109 960V974"/><circle class="rr-cap" cx="109" cy="974" r="3"/></g><g id="pair"><text class="rr-title" x="16" y="1023">pair</text><circle class="rr-cap" cx="191" cy="1034" r="3"/><path class="rr-line" d="M191 1034V1048"/><path class="rr-line" d="M191 1048V1066"/><path class="rr-line" d="M191 1066V1084"/><path class="rr-line" d="M96 1084H286"/><path class="rr-line" d="M96 1306H286"/><path class="rr-line" d="M191 1306V1324"/><path class="rr-line" d="M96 1084V1102"/><path class="rr-line" d="M96 1102V1120"/><path class="rr-line" d="M34 1120H158"/><path class="rr-line" d="M34 1182H158"/><path class="rr-line" d="M96 1182V1200"/><path class="rr-line" d="M34 1120V1138"/><rect class="rr-term" x="16" y="1138" width="36" height="26" rx="13" ry="13"/><text class="rr-label" x="34" y="1151">HK</text><path class="rr-line" d="M34 1164V1182"/><path class="rr-line" d="M96 1120V1138"/><rect class="rr-term" x="78" y="1138" width="36" height="26" rx="13" ry="13"/><text class="rr-label" x="96" y="1151">ST</text><path class="rr-line" d="M96 1164V1182"/><path class="rr-line" d="M158 1120V1138"/><rect class="rr-term" x="140" y="1138" width="36" height="26" rx="13" ry="13"/><text class="rr-label" x="158" y="1151">VL</text><path class="rr-line" d="M158 1164V1182"/><path class="rr-line" d="M96 1200V1218"/><rect class="rr-term" x="81" y="1218" width="30" height="26" rx="13" ry="13"/><text class="rr-label" x="96" y="1231">=</text><path class="rr-line" d="M96 1244V1262"/><a href="#val"><rect class="rr-nonterm" x="74" y="1262" width="44" height="26" rx="4" ry="4"/><text class="rr-label" x="96" y="1275">val</text></a><path class="rr-line" d="M96 1288V1306"/><path class="rr-line" d="M220 1084V1102"/><rect class="rr-term" x="202" y="1102" width="36" height="26" rx="13" ry="13"/><text class="rr-label" x="220" y="1115">HK</text><path class="rr-line" d="M220 1128V1306"/><path class="rr-line" d="M286 1084V1102"/><rect class="rr-term" x="264" y="1102" width="44" height="26" rx="13" ry="13"/><text class="rr-label" x="286" y="1115">KEY</text><path class="rr-line" d="M286 1128V1146"/><rect class="rr-term" x="268" y="1146" width="36" height="26" rx="13" ry="13"/><text class="rr-label" x="286" y="1159">CL</text><path class="rr-line" d="M286 1172V1190"/><a href="#val"><rect class="rr-nonterm" x="264" y="1190" width="44" height="26" rx="4" ry="4"/><text class="rr-label" x="286" y="1203">val</text></a><path class="rr-line" d="M286 1216V1306"/><path class="rr-line" d="M191 1324V1342"/><path class="rr-line" d="M191 1333H333"/><path class="rr-line" d="M191 1057H333"/><path class="rr-line" d="M333 1208V1333"/><path class="rr-line" d="M333 1057V1182"/><rect class="rr-term" x="318" y="1182" width="30" height="26" rx="13" ry="13"/><text class="rr-label" x="333" y="1195">,</text><path class="rr-line" d="M191 1342V1360"/><path class="rr-line" d="M191 1360V1378"/><path class="rr-line" d="M129 1378H253"/><path class="rr-line" d="M129 1440H253"/><path class="rr-line" d="M191 1440V1458"/><path class="rr-line" d="M129 1378V1396"/><rect class="rr-term" x="111" y="1396" width="36" height="26" rx="13" ry="13"/><text class="rr-label" x="129" y="1409">HK</text><path class="rr-line" d="M129 1422V1440"/><path class="rr-line" d="M191 1378V1396"/><rect class="rr-term" x="173" y="1396" width="36" height="26" rx="13" ry="13"/><text class="rr-label" x="191" y="1409">ST</text><path class="rr-line" d="M191 1422V1440"/><path class="rr-line" d="M253 1378V1396"/><rect class="rr-term" x="235" y="1396" width="36" height="26" rx="13" ry="13"/><text class="rr-label" x="253" y="1409">VL</text><path class="rr-line" d="M253 1422V1440"/><path class="rr-line" d="M191 1458V1476"/><rect class="rr-term" x="173" y="1476" width="36" height="26" rx="13" ry="13"/><text class="rr-label" x="191" y="1489">CL</text><path class="rr-line" d="M191 1502V1516"/><circle class="rr-cap" cx="191" cy="1516" r="3"/></g><g id="elem"><text class="rr-title" x="502" y="31">elem</text><circle class="rr-cap" cx="524" cy="42" r="3"/><path class="rr-line" d="M524 42V56"/><path class="rr-line" d="M524 56V74"/><a href="#val"><rect class="rr-nonterm" x="502" y="74" width="44" height="26" rx="4" ry="4"/><text class="rr-label" x="524" y="87">val</text></a><path class="rr-line" d="M524 100V118"/><path class="rr-line" d="M524 109H571"/><path class="rr-line" d="M524 65H571"/><path class="rr-line" d="M571 100V109"/><path class="rr-line" d="M571 65V74"/><rect class="rr-term" x="556" y="74" width="30" height="26" rx="13" ry="13"/><text class="rr-label" x="571" y="87">,</text><path class="rr-line" d="M524 118V132"/><circle class="rr-cap" cx="524" cy="132" r="3"/></g><g id="table"><text class="rr-title" x="502" y="181">table</text><circle class="rr-cap" cx="656" cy="192" r="3"/><path class="rr-line" d="M656 192V206"/><path class="rr-line" d="M656 206V224"/><path class="rr-line" d="M656 224V242"/><path class="rr-line" d="M600 242H712"/><path class="rr-line" d="M600 420H712"/><path class="rr-line" d="M656 420V438"/><path class="rr-line" d="M600 242V260"/><path class="rr-line" d="M600 260V278"/><path class="rr-line" d="M528 278H672"/><path class="rr-line" d="M528 384H672"/><path class="rr-line" d="M600 384V402"/><path class="rr-line" d="M528 278V296"/><rect class="rr-term" x="513" y="296" width="30" height="26" rx="13" ry="13"/><text class="rr-label" x="528" y="309">[</text><path class="rr-line" d="M528 322V340"/><a href="#dive"><rect class="rr-nonterm" x="502" y="340" width="52" height="26" rx="4" ry="4"/><text class="rr-label" x="528" y="353">dive</text></a><path class="rr-line" d="M528 366V384"/><path class="rr-line" d="M602 278V296"/><a href="#map"><rect class="rr-nonterm" x="580" y="296" width="44" height="26" rx="4" ry="4"/><text class="rr-label" x="602" y="309">map</text></a><path class="rr-line" d="M602 322V384"/><path class="rr-line" d="M672 278V296"/><rect class="rr-term" x="657" y="296" width="30" height="26" rx="13" ry="13"/><text class="rr-label" x="672" y="309">]</text><path class="rr-line" d="M672 322V340"/><a href="#map"><rect class="rr-nonterm" x="650" y="340" width="44" height="26" rx="4" ry="4"/><text class="rr-label" x="672" y="353">map</text></a><path class="rr-line" d="M672 366V384"/><path class="rr-line" d="M600 402V420"/><path class="rr-line" d="M712 242V260"/><path class="rr-line" d="M712 260V272"/><path class="rr-line" d="M712 272V420"/><path class="rr-line" d="M656 438V456"/><path class="rr-line" d="M656 447H745"/><path class="rr-line" d="M656 215H745"/><path class="rr-line" d="M745 344V447"/><path class="rr-line" d="M745 215V318"/><rect class="rr-term" x="730" y="318" width="30" height="26" rx="13" ry="13"/><text class="rr-label" x="745" y="331">]</text><path class="rr-line" d="M656 456V470"/><circle class="rr-cap" cx="656" cy="470" r="3"/></g><g id="dive"><text class="rr-title" x="502" y="519">dive</text><circle class="rr-cap" cx="550" cy="530" r="3"/><path class="rr-line" d="M550 530V544"/><rect class="rr-term" x="532" y="544" width="36" height="26" rx="13" ry="13"/><text class="rr-label" x="550" y="557">DK</text><path class="rr-line" d="M550 570V588"/><path class="rr-line" d="M550 588V606"/><path class="rr-line" d="M528 606H572"/><path class="rr-line" d="M528 712H572"/><path class="rr-line" d="M550 712V730"/><path class="rr-line" d="M528 606V624"/><rect class="rr-term" x="513" y="624" width="30" height="26" rx="13" ry="13"/><text class="rr-label" x="528" y="637">.</text><path class="rr-line" d="M528 650V668"/><a href="#dive"><rect class="rr-nonterm" x="502" y="668" width="52" height="26" rx="4" ry="4"/><text class="rr-label" x="528" y="681">dive</text></a><path class="rr-line" d="M528 694V712"/><path class="rr-line" d="M572 606V624"/><path class="rr-line" d="M572 624V636"/><path class="rr-line" d="M572 636V712"/><path class="rr-line" d="M550 730V744"/><circle class="rr-cap" cx="550" cy="744" r="3"/></g></g></svg>