<svg xmlns="http://www.w3.org/2000/svg" class="railroad" width="786" height="1498" viewBox="0 0 786 1498"><style>svg.railroad{background:#fff;font-family:monospace;font-size:13px}.rr-line{stroke:#334;stroke-width:2;fill:none}.rr-cap{fill:#334}.rr-term{fill:#e8f0ff;stroke:#334;stroke-width:2}.rr-nonterm{fill:#fff7e8;stroke:#334;stroke-width:2}.rr-label{fill:#111;text-anchor:middle;dominant-baseline:middle}.rr-comment{fill:#666;font-style:italic;text-anchor:middle;dominant-baseline:middle}.rr-title{fill:#113;font-weight:bold;font-size:15px}.rr-legend{fill:#333;font-size:12px}.rr-legend-tok{fill:#113;font-weight:bold}a:hover .rr-nonterm{fill:#ffe6b3;cursor:pointer}</style><g><g id="ini"><text class="rr-title" x="16" y="31">ini</text><circle class="rr-cap" cx="46" cy="42" r="3"/><path class="rr-line" d="M46 42V56"/><a href="#table"><rect class="rr-nonterm" x="16" y="56" width="60" height="26" rx="4" ry="4"/><text class="rr-label" x="46" y="69">table</text></a><path class="rr-line" d="M46 82V96"/><circle class="rr-cap" cx="46" cy="96" r="3"/></g><g id="val"><text class="rr-title" x="16" y="145">val</text><circle class="rr-cap" cx="339.25" cy="156" r="3"/><path class="rr-line" d="M339.25 156V170"/><path class="rr-line" d="M339.25 170V188"/><path class="rr-line" d="M232.5 188H446"/><path class="rr-line" d="M232.5 394H446"/><path class="rr-line" d="M339.25 394V412"/><path class="rr-line" d="M232.5 188V206"/><path class="rr-line" d="M232.5 206V224"/><path class="rr-line" d="M59 224H406"/><path class="rr-line" d="M59 358H406"/><path class="rr-line" d="M232.5 358V376"/><path class="rr-line" d="M59 224V242"/><path class="rr-line" d="M59 242V260"/><path class="rr-line" d="M31 260H87"/><path class="rr-line" d="M31 322H87"/><path class="rr-line" d="M59 322V340"/><path class="rr-line" d="M31 260V278"/><rect class="rr-term" x="16" y="278" width="30" height="26" rx="13" ry="13"/><text class="rr-label" x="31" y="291">[</text><path class="rr-line" d="M31 304V322"/><path class="rr-line" d="M87 260V278"/><rect class="rr-term" x="72" y="278" width="30" height="26" rx="13" ry="13"/><text class="rr-label" x="87" y="291">]</text><path class="rr-line" d="M87 304V322"/><path class="rr-line" d="M59 340V358"/><path class="rr-line" d="M146 224V242"/><rect class="rr-term" x="128" y="242" width="36" height="26" rx="13" ry="13"/><text class="rr-label" x="146" y="255">DK</text><path class="rr-line" d="M146 268V358"/><path class="rr-line" d="M208 224V242"/><rect class="rr-term" x="190" y="242" width="36" height="26" rx="13" ry="13"/><text class="rr-label" x="208" y="255">HK</text><path class="rr-line" d="M208 268V358"/><path class="rr-line" d="M270 224V242"/><rect class="rr-term" x="252" y="242" width="36" height="26" rx="13" ry="13"/><text class="rr-label" x="270" y="255">HV</text><path class="rr-line" d="M270 268V358"/><path class="rr-line" d="M336 224V242"/><a href="#map"><rect class="rr-nonterm" x="314" y="242" width="44" height="26" rx="4" ry="4"/><text class="rr-label" x="336" y="255">map</text></a><path class="rr-line" d="M336 268V358"/><path class="rr-line" d="M406 224V242"/><rect class="rr-term" x="384" y="242" width="44" height="26" rx="13" ry="13"/><text class="rr-label" x="406" y="255">VAL</text><path class="rr-line" d="M406 268V358"/><path class="rr-line" d="M232.5 376V394"/><path class="rr-line" d="M446 188V206"/><path class="rr-line" d="M446 206V218"/><path class="rr-line" d="M446 218V394"/><path class="rr-line" d="M339.25 412V426"/><circle class="rr-cap" cx="339.25" cy="426" r="3"/></g><g id="map"><text class="rr-title" x="16" y="475">map</text><circle class="rr-cap" cx="108" cy="486" r="3"/><path class="rr-line" d="M108 486V500"/><path class="rr-line" d="M108 500V518"/><path class="rr-line" d="M34 518H182"/><path class="rr-line" d="M34 624H182"/><path class="rr-line" d="M108 624V642"/><path class="rr-line" d="M34 518V536"/><rect class="rr-term" x="16" y="536" width="36" height="26" rx="13" ry="13"/><text class="rr-label" x="34" y="549">OB</text><path class="rr-line" d="M34 562V624"/><path class="rr-line" d="M104 518V536"/><rect class="rr-term" x="86" y="536" width="36" height="26" rx="13" ry="13"/><text class="rr-label" x="104" y="549">OB</text><path class="rr-line" d="M104 562V580"/><a href="#pair"><rect class="rr-nonterm" x="78" y="580" width="52" height="26" rx="4" ry="4"/><text class="rr-label" x="104" y="593">pair</text></a><path class="rr-line" d="M104 606V624"/><path class="rr-line" d="M182 518V536"/><a href="#pair"><rect class="rr-nonterm" x="156" y="536" width="52" height="26" rx="4" ry="4"/><text class="rr-label" x="182" y="549">pair</text></a><path class="rr-line" d="M182 562V624"/><path class="rr-line" d="M108 642V660"/><rect class="rr-term" x="90" y="660" width="36" height="26" rx="13" ry="13"/><text class="rr-label" x="108" y="673">CB</text><path class="rr-line" d="M108 686V700"/><circle class="rr-cap" cx="108" cy="700" r="3"/></g><g id="pair"><text class="rr-title" x="16" y="749">pair</text><circle class="rr-cap" cx="191" cy="760" r="3"/><path class="rr-line" d="M191 760V774"/><path class="rr-line" d="M191 774V792"/><path class="rr-line" d="M191 792V810"/><path class="rr-line" d="M96 810H286"/><path class="rr-line" d="M96 1032H286"/><path class="rr-line" d="M191 1032V1050"/><path class="rr-line" d="M96 810V828"/><path class="rr-line" d="M96 828V846"/><path class="rr-line" d="M34 846H158"/><path class="rr-line" d="M34 908H158"/><path class="rr-line" d="M96 908V926"/><path class="rr-line" d="M34 846V864"/><rect class="rr-term" x="16" y="864" width="36" height="26" rx="13" ry="13"/><text class="rr-label" x="34" y="877">HK</text><path class="rr-line" d="M34 890V908"/><path class="rr-line" d="M96 846V864"/><rect class="rr-term" x="78" y="864" width="36" height="26" rx="13" ry="13"/><text class="rr-label" x="96" y="877">ST</text><path class="rr-line" d="M96 890V908"/><path class="rr-line" d="M158 846V864"/><rect class="rr-term" x="140" y="864" width="36" height="26" rx="13" ry="13"/><text class="rr-label" x="158" y="877">VL</text><path class="rr-line" d="M158 890V908"/><path class="rr-line" d="M96 926V944"/><rect class="rr-term" x="81" y="944" width="30" height="26" rx="13" ry="13"/><text class="rr-label" x="96" y="957">=</text><path class="rr-line" d="M96 970V988"/><a href="#val"><rect class="rr-nonterm" x="74" y="988" width="44" height="26" rx="4" ry="4"/><text class="rr-label" x="96" y="1001">val</text></a><path class="rr-line" d="M96 1014V1032"/><path class="rr-line" d="M220 810V828"/><rect class="rr-term" x="202" y="828" width="36" height="26" rx="13" ry="13"/><text class="rr-label" x="220" y="841">HK</text><path class="rr-line" d="M220 854V1032"/><path class="rr-line" d="M286 810V828"/><rect class="rr-term" x="264" y="828" width="44" height="26" rx="13" ry="13"/><text class="rr-label" x="286" y="841">KEY</text><path class="rr-line" d="M286 854V872"/><rect class="rr-term" x="268" y="872" width="36" height="26" rx="13" ry="13"/><text class="rr-label" x="286" y="885">CL</text><path class="rr-line" d="M286 898V916"/><a href="#val"><rect class="rr-nonterm" x="264" y="916" width="44" height="26" rx="4" ry="4"/><text class="rr-label" x="286" y="929">val</text></a><path class="rr-line" d="M286 942V1032"/><path class="rr-line" d="M191 1050V1068"/><path class="rr-line" d="M191 1059H333"/><path class="rr-line" d="M191 783H333"/><path class="rr-line" d="M333 934V1059"/><path class="rr-line" d="M333 783V908"/><rect class="rr-term" x="318" y="908" width="30" height="26" rx="13" ry="13"/><text class="rr-label" x="333" y="921">,</text><path class="rr-line" d="M191 1068V1086"/><path class="rr-line" d="M191 1086V1104"/><path class="rr-line" d="M129 1104H253"/><path class="rr-line" d="M129 1166H253"/><path class="rr-line" d="M191 1166V1184"/><path class="rr-line" d="M129 1104V1122"/><rect class="rr-term" x="111" y="1122" width="36" height="26" rx="13" ry="13"/><text class="rr-label" x="129" y="1135">HK</text><path class="rr-line" d="M129 1148V1166"/><path class="rr-line" d="M191 1104V1122"/><rect class="rr-term" x="173" y="1122" width="36" height="26" rx="13" ry="13"/><text class="rr-label" x="191" y="1135">ST</text><path class="rr-line" d="M191 1148V1166"/><path class="rr-line" d="M253 1104V1122"/><rect class="rr-term" x="235" y="1122" width="36" height="26" rx="13" ry="13"/><text class="rr-label" x="253" y="1135">VL</text><path class="rr-line" d="M253 1148V1166"/><path class="rr-line" d="M191 1184V1202"/><rect class="rr-term" x="173" y="1202" width="36" height="26" rx="13" ry="13"/><text class="rr-label" x="191" y="1215">CL</text><path class="rr-line" d="M191 1228V1242"/><circle class="rr-cap" cx="191" cy="1242" r="3"/></g><g id="table"><text class="rr-title" x="502" y="31">table</text><circle class="rr-cap" cx="656" cy="42" r="3"/><path class="rr-line" d="M656 42V56"/><path class="rr-line" d="M656 56V74"/><path class="rr-line" d="M656 74V92"/><path class="rr-line" d="M600 92H712"/><path class="rr-line" d="M600 270H712"/><path class="rr-line" d="M656 270V288"/><path class="rr-line" d="M600 92V110"/><path class="rr-line" d="M600 110V128"/><path class="rr-line" d="M528 128H672"/><path class="rr-line" d="M528 234H672"/><path class="rr-line" d="M600 234V252"/><path class="rr-line" d="M528 128V146"/><rect class="rr-term" x="513" y="146" width="30" height="26" rx="13" ry="13"/><text class="rr-label" x="528" y="159">[</text><path class="rr-line" d="M528 172V190"/><a href="#dive"><rect class="rr-nonterm" x="502" y="190" width="52" height="26" rx="4" ry="4"/><text class="rr-label" x="528" y="203">dive</text></a><path class="rr-line" d="M528 216V234"/><path class="rr-line" d="M602 128V146"/><a href="#map"><rect class="rr-nonterm" x="580" y="146" width="44" height="26" rx="4" ry="4"/><text class="rr-label" x="602" y="159">map</text></a><path class="rr-line" d="M602 172V234"/><path class="rr-line" d="M672 128V146"/><rect class="rr-term" x="657" y="146" width="30" height="26" rx="13" ry="13"/><text class="rr-label" x="672" y="159">]</text><path class="rr-line" d="M672 172V190"/><a href="#map"><rect class="rr-nonterm" x="650" y="190" width="44" height="26" rx="4" ry="4"/><text class="rr-label" x="672" y="203">map</text></a><path class="rr-line" d="M672 216V234"/><path class="rr-line" d="M600 252V270"/><path class="rr-line" d="M712 92V110"/><path class="rr-line" d="M712 110V122"/><path class="rr-line" d="M712 122V270"/><path class="rr-line" d="M656 288V306"/><path class="rr-line" d="M656 297H745"/><path class="rr-line" d="M656 65H745"/><path class="rr-line" d="M745 194V297"/><path class="rr-line" d="M745 65V168"/><rect class="rr-term" x="730" y="168" width="30" height="26" rx="13" ry="13"/><text class="rr-label" x="745" y="181">]</text><path class="rr-line" d="M656 306V320"/><circle class="rr-cap" cx="656" cy="320" r="3"/></g><g id="dive"><text class="rr-title" x="502" y="369">dive</text><circle class="rr-cap" cx="550" cy="380" r="3"/><path class="rr-line" d="M550 380V394"/><rect class="rr-term" x="532" y="394" width="36" height="26" rx="13" ry="13"/><text class="rr-label" x="550" y="407">DK</text><path class="rr-line" d="M550 420V438"/><path class="rr-line" d="M550 438V456"/><path class="rr-line" d="M528 456H572"/><path class="rr-line" d="M528 562H572"/><path class="rr-line" d="M550 562V580"/><path class="rr-line" d="M528 456V474"/><rect class="rr-term" x="513" y="474" width="30" height="26" rx="13" ry="13"/><text class="rr-label" x="528" y="487">.</text><path class="rr-line" d="M528 500V518"/><a href="#dive"><rect class="rr-nonterm" x="502" y="518" width="52" height="26" rx="4" ry="4"/><text class="rr-label" x="528" y="531">dive</text></a><path class="rr-line" d="M528 544V562"/><path class="rr-line" d="M572 456V474"/><path class="rr-line" d="M572 474V486"/><path class="rr-line" d="M572 486V562"/><path class="rr-line" d="M550 580V594"/><circle class="rr-cap" cx="550" cy="594" r="3"/></g><text class="rr-title" x="16" y="1291">Tokens</text><text class="rr-legend" x="16" y="1313"><tspan class="rr-legend-tok">CB</tspan>  —  close brace } (end of a map)</text><text class="rr-legend" x="16" y="1331"><tspan class="rr-legend-tok">CL</tspan>  —  colon : (separates a key from its value)</text><text class="rr-legend" x="16" y="1349"><tspan class="rr-legend-tok">DK</tspan>  —  section-header path segment, as in [a.b.c]</text><text class="rr-legend" x="16" y="1367"><tspan class="rr-legend-tok">HK</tspan>  —  property key (left of key = value)</text><text class="rr-legend" x="16" y="1385"><tspan class="rr-legend-tok">HV</tspan>  —  property value (right of key = value)</text><text class="rr-legend" x="16" y="1403"><tspan class="rr-legend-tok">KEY</tspan>  —  map key: bare text, number, string, or keyword</text><text class="rr-legend" x="16" y="1421"><tspan class="rr-legend-tok">OB</tspan>  —  open brace { (start of a map)</text><text class="rr-legend" x="16" y="1439"><tspan class="rr-legend-tok">ST</tspan>  —  quoted string (e.g. &quot;text&quot;)</text><text class="rr-legend" x="16" y="1457"><tspan class="rr-legend-tok">VAL</tspan>  —  value: bare text, number, string, or keyword</text><text class="rr-legend" x="16" y="1475"><tspan class="rr-legend-tok">VL</tspan>  —  value keyword (true, false, null, ...)</text></g></svg>